Cuprum-BoldItalic.ufo
<glyph name="one" format="2">
  <advance width="305"/>
  <unicode hex="0031"/>
  <outline>
    <contour>
      <point x="115" y="0" type="line"/>
      <point x="235" y="0" type="line"/>
      <point x="358" y="700" type="line"/>
      <point x="293" y="700" type="line"/>
      <point x="223" y="700"/>
      <point x="161" y="690"/>
      <point x="129" y="680" type="curve"/>
      <point x="119" y="620" type="line"/>
      <point x="224" y="620" type="line"/>
    </contour>
  </outline>
</glyph>
<glyph name="six" format="2">
  <advance width="475"/>
  <unicode hex="0036"/>
  <outline>
    <contour>
      <point x="243" y="-10" type="curve" smooth="yes"/>
      <point x="373" y="-10"/>
      <point x="455" y="60"/>
      <point x="481" y="205" type="curve" smooth="yes"/>
      <point x="507" y="355"/>
      <point x="449" y="425"/>
      <point x="334" y="425" type="curve" smooth="yes"/>
      <point x="309" y="425"/>
      <point x="269" y="420"/>
      <point x="237" y="410" type="curve"/>
      <point x="268" y="585"/>
      <point x="326" y="635"/>
      <point x="396" y="635" type="curve" smooth="yes"/>
      <point x="526" y="635" type="line"/>
      <point x="536" y="690" type="line"/>
      <point x="508" y="700"/>
      <point x="450" y="710"/>
      <point x="380" y="710" type="curve" smooth="yes"/>
      <point x="250" y="710"/>
      <point x="154" y="620"/>
      <point x="119" y="420" type="curve" smooth="yes"/>
      <point x="80" y="200" type="line" smooth="yes"/>
      <point x="55" y="60"/>
      <point x="113" y="-10"/>
    </contour>
    <contour>
      <point x="255" y="60" type="curve" smooth="yes"/>
      <point x="210" y="60"/>
      <point x="182" y="100"/>
      <point x="200" y="200" type="curve" smooth="yes"/>
      <point x="227" y="355" type="line"/>
      <point x="277" y="355" type="line"/>
      <point x="362" y="355"/>
      <point x="380" y="315"/>
      <point x="361" y="205" type="curve" smooth="yes"/>
      <point x="342" y="100"/>
      <point x="300" y="60"/>
    </contour>
  </outline>
</glyph>
<glyph name="at" format="2">
  <advance width="850"/>
  <unicode hex="0040"/>
  <outline>
    <contour>
      <point x="424" y="-90" type="curve" smooth="yes"/>
      <point x="494" y="-90"/>
      <point x="555" y="-80"/>
      <point x="587" y="-70" type="curve"/>
      <point x="597" y="-15" type="line"/>
      <point x="457" y="-15" type="line" smooth="yes"/>
      <point x="252" y="-15"/>
      <point x="169" y="85"/>
      <point x="209" y="310" type="curve" smooth="yes"/>
      <point x="250" y="540"/>
      <point x="367" y="640"/>
      <point x="532" y="640" type="curve" smooth="yes"/>
      <point x="707" y="640"/>
      <point x="790" y="540"/>
      <point x="759" y="365" type="curve" smooth="yes"/>
      <point x="730" y="200"/>
      <point x="677" y="155"/>
      <point x="632" y="155" type="curve"/>
      <point x="696" y="520" type="line"/>
      <point x="668" y="530"/>
      <point x="610" y="540"/>
      <point x="555" y="540" type="curve" smooth="yes"/>
      <point x="400" y="540"/>
      <point x="317" y="470"/>
      <point x="287" y="300" type="curve" smooth="yes"/>
      <point x="261" y="150"/>
      <point x="329" y="80"/>
      <point x="414" y="80" type="curve" smooth="yes"/>
      <point x="459" y="80"/>
      <point x="491" y="95"/>
      <point x="521" y="120" type="curve"/>
      <point x="526" y="120" type="line"/>
      <point x="535" y="90" type="line"/>
      <point x="740" y="90"/>
      <point x="834" y="170"/>
      <point x="869" y="365" type="curve" smooth="yes"/>
      <point x="905" y="570"/>
      <point x="790" y="710"/>
      <point x="545" y="710" type="curve" smooth="yes"/>
      <point x="310" y="710"/>
      <point x="145" y="570"/>
      <point x="99" y="310" type="curve" smooth="yes"/>
      <point x="53" y="50"/>
      <point x="169" y="-90"/>
    </contour>
    <contour>
      <point x="456" y="150" type="curve" smooth="yes"/>
      <point x="421" y="150"/>
      <point x="388" y="190"/>
      <point x="407" y="300" type="curve" smooth="yes"/>
      <point x="430" y="430"/>
      <point x="477" y="470"/>
      <point x="542" y="470" type="curve" smooth="yes"/>
      <point x="567" y="470" type="line"/>
      <point x="514" y="170" type="line"/>
      <point x="503" y="160"/>
      <point x="481" y="150"/>
    </contour>
  </outline>
</glyph>
<glyph name="F" format="2">
  <advance width="455"/>
  <unicode hex="0046"/>
  <outline>
    <contour>
      <point x="70" y="0" type="line"/>
      <point x="190" y="0" type="line"/>
      <point x="244" y="310" type="line"/>
      <point x="449" y="310" type="line"/>
      <point x="463" y="390" type="line"/>
      <point x="258" y="390" type="line"/>
      <point x="299" y="620" type="line"/>
      <point x="544" y="620" type="line"/>
      <point x="558" y="700" type="line"/>
      <point x="193" y="700" type="line"/>
    </contour>
  </outline>
</glyph>
<glyph name="H" format="2">
  <advance width="560"/>
  <unicode hex="0048"/>
  <outline>
    <contour>
      <point x="70" y="0" type="line"/>
      <point x="190" y="0" type="line"/>
      <point x="245" y="315" type="line"/>
      <point x="425" y="315" type="line"/>
      <point x="370" y="0" type="line"/>
      <point x="490" y="0" type="line"/>
      <point x="613" y="700" type="line"/>
      <point x="493" y="700" type="line"/>
      <point x="439" y="395" type="line"/>
      <point x="259" y="395" type="line"/>
      <point x="313" y="700" type="line"/>
      <point x="193" y="700" type="line"/>
    </contour>
  </outline>
</glyph>
<glyph name="bracketleft" format="2">
  <advance width="285"/>
  <unicode hex="005B"/>
  <outline>
    <contour>
      <point x="38" y="-180" type="line"/>
      <point x="253" y="-180" type="line"/>
      <point x="265" y="-110" type="line"/>
      <point x="170" y="-110" type="line"/>
      <point x="308" y="670" type="line"/>
      <point x="403" y="670" type="line"/>
      <point x="415" y="740" type="line"/>
      <point x="200" y="740" type="line"/>
    </contour>
  </outline>
</glyph>
<glyph name="bracketright" format="2">
  <advance width="285"/>
  <unicode hex="005D"/>
  <outline>
    <contour>
      <point x="-31" y="-180" type="line"/>
      <point x="183" y="-180" type="line"/>
      <point x="345" y="740" type="line"/>
      <point x="130" y="740" type="line"/>
      <point x="118" y="670" type="line"/>
      <point x="213" y="670" type="line"/>
      <point x="75" y="-110" type="line"/>
      <point x="-19" y="-110" type="line"/>
    </contour>
  </outline>
</glyph>
<glyph name="g" format="2">
  <advance width="490"/>
  <unicode hex="0067"/>
  <outline>
    <contour>
      <point x="172" y="-210" type="curve" smooth="yes"/>
      <point x="317" y="-210"/>
      <point x="400" y="-140"/>
      <point x="432" y="40" type="curve" smooth="yes"/>
      <point x="509" y="480" type="line"/>
      <point x="463" y="500"/>
      <point x="419" y="510"/>
      <point x="349" y="510" type="curve" smooth="yes"/>
      <point x="199" y="510"/>
      <point x="117" y="440"/>
      <point x="84" y="250" type="curve" smooth="yes"/>
      <point x="50" y="60"/>
      <point x="108" y="-10"/>
      <point x="218" y="-10" type="curve" smooth="yes"/>
      <point x="253" y="-10"/>
      <point x="285" y="0"/>
      <point x="307" y="15" type="curve"/>
      <point x="287" y="-100"/>
      <point x="240" y="-140"/>
      <point x="165" y="-140" type="curve" smooth="yes"/>
      <point x="55" y="-140" type="line"/>
      <point x="46" y="-190" type="line"/>
      <point x="74" y="-200"/>
      <point x="122" y="-210"/>
    </contour>
    <contour>
      <point x="260" y="60" type="curve" smooth="yes"/>
      <point x="210" y="60"/>
      <point x="177" y="100"/>
      <point x="204" y="250" type="curve" smooth="yes"/>
      <point x="230" y="400"/>
      <point x="277" y="440"/>
      <point x="337" y="440" type="curve" smooth="yes"/>
      <point x="382" y="440" type="line"/>
      <point x="319" y="80" type="line"/>
      <point x="307" y="70"/>
      <point x="285" y="60"/>
    </contour>
  </outline>
</glyph>
<glyph name="m" format="2">
  <advance width="740"/>
  <unicode hex="006D"/>
  <outline>
    <contour>
      <point x="65" y="0" type="line"/>
      <point x="185" y="0" type="line"/>
      <point x="259" y="420" type="line"/>
      <point x="270" y="430"/>
      <point x="292" y="440"/>
      <point x="317" y="440" type="curve" smooth="yes"/>
      <point x="347" y="440"/>
      <point x="384" y="420"/>
      <point x="371" y="350" type="curve" smooth="yes"/>
      <point x="310" y="0" type="line"/>
      <point x="430" y="0" type="line"/>
      <point x="491" y="350" type="line"/>
      <point x="497" y="380"/>
      <point x="497" y="410"/>
      <point x="494" y="425" type="curve"/>
      <point x="511" y="433"/>
      <point x="532" y="440"/>
      <point x="557" y="440" type="curve" smooth="yes"/>
      <point x="592" y="440"/>
      <point x="629" y="420"/>
      <point x="616" y="350" type="curve" smooth="yes"/>
      <point x="555" y="0" type="line"/>
      <point x="675" y="0" type="line"/>
      <point x="736" y="350" type="line" smooth="yes"/>
      <point x="759" y="480"/>
      <point x="694" y="510"/>
      <point x="614" y="510" type="curve" smooth="yes"/>
      <point x="554" y="510"/>
      <point x="512" y="495"/>
      <point x="477" y="470" type="curve"/>
      <point x="457" y="495"/>
      <point x="424" y="510"/>
      <point x="374" y="510" type="curve" smooth="yes"/>
      <point x="314" y="510"/>
      <point x="277" y="490"/>
      <point x="252" y="470" type="curve"/>
      <point x="247" y="470" type="line"/>
      <point x="238" y="500" type="line"/>
      <point x="153" y="500" type="line"/>
    </contour>
  </outline>
</glyph>
<glyph name="r" format="2">
  <advance width="360"/>
  <unicode hex="0072"/>
  <outline>
    <contour>
      <point x="65" y="0" type="line"/>
      <point x="185" y="0" type="line"/>
      <point x="254" y="395" type="line"/>
      <point x="266" y="405"/>
      <point x="288" y="415"/>
      <point x="313" y="415" type="curve" smooth="yes"/>
      <point x="423" y="415" type="line"/>
      <point x="438" y="500" type="line"/>
      <point x="373" y="500" type="line"/>
      <point x="313" y="500"/>
      <point x="275" y="480"/>
      <point x="251" y="460" type="curve"/>
      <point x="246" y="460" type="line"/>
      <point x="238" y="500" type="line"/>
      <point x="153" y="500" type="line"/>
    </contour>
  </outline>
</glyph>
<glyph name="s" format="2">
  <advance width="415"/>
  <unicode hex="0073"/>
  <outline>
    <contour>
      <point x="168" y="-10" type="curve" smooth="yes"/>
      <point x="313" y="-10"/>
      <point x="388" y="20"/>
      <point x="409" y="140" type="curve" smooth="yes"/>
      <point x="439" y="310"/>
      <point x="198" y="275"/>
      <point x="217" y="380" type="curve" smooth="yes"/>
      <point x="224" y="420"/>
      <point x="267" y="440"/>
      <point x="322" y="440" type="curve" smooth="yes"/>
      <point x="432" y="440" type="line"/>
      <point x="441" y="490" type="line"/>
      <point x="413" y="500"/>
      <point x="364" y="510"/>
      <point x="314" y="510" type="curve" smooth="yes"/>
      <point x="189" y="510"/>
      <point x="114" y="480"/>
      <point x="95" y="370" type="curve" smooth="yes"/>
      <point x="65" y="200"/>
      <point x="306" y="235"/>
      <point x="287" y="130" type="curve" smooth="yes"/>
      <point x="279" y="80"/>
      <point x="235" y="60"/>
      <point x="160" y="60" type="curve" smooth="yes"/>
      <point x="50" y="60" type="line"/>
      <point x="41" y="10" type="line"/>
      <point x="70" y="0"/>
      <point x="118" y="-10"/>
    </contour>
  </outline>
</glyph>
<glyph name="v" format="2">
  <advance width="470"/>
  <unicode hex="0076"/>
  <outline>
    <contour>
      <point x="160" y="0" type="line"/>
      <point x="310" y="0" type="line"/>
      <point x="543" y="500" type="line"/>
      <point x="423" y="500" type="line"/>
      <point x="259" y="125" type="line"/>
      <point x="255" y="125" type="line"/>
      <point x="223" y="500" type="line"/>
      <point x="103" y="500" type="line"/>
    </contour>
  </outline>
</glyph>
<glyph name="w" format="2">
  <advance width="650"/>
  <unicode hex="0077"/>
  <outline>
    <contour>
      <point x="115" y="0" type="line"/>
      <point x="245" y="0" type="line"/>
      <point x="366" y="245" type="line"/>
      <point x="370" y="245" type="line"/>
      <point x="405" y="0" type="line"/>
      <point x="535" y="0" type="line"/>
      <point x="723" y="500" type="line"/>
      <point x="603" y="500" type="line"/>
      <point x="480" y="150" type="line"/>
      <point x="476" y="150" type="line"/>
      <point x="440" y="400" type="line"/>
      <point x="350" y="400" type="line"/>
      <point x="226" y="150" type="line"/>
      <point x="222" y="150" type="line"/>
      <point x="223" y="500" type="line"/>
      <point x="103" y="500" type="line"/>
    </contour>
  </outline>
</glyph>
<glyph name="bar" format="2">
  <advance width="260"/>
  <unicode hex="007C"/>
  <outline>
    <contour>
      <point x="34" y="-200" type="line"/>
      <point x="154" y="-200" type="line"/>
      <point x="313" y="700" type="line"/>
      <point x="193" y="700" type="line"/>
    </contour>
  </outline>
</glyph>
<glyph name="degree" format="2">
  <advance width="410"/>
  <unicode hex="00B0"/>
  <outline>
    <contour>
      <point x="273" y="390" type="curve"/>
      <point x="378" y="390"/>
      <point x="449" y="450"/>
      <point x="466" y="550" type="curve" smooth="yes"/>
      <point x="484" y="650"/>
      <point x="435" y="710"/>
      <point x="330" y="710" type="curve"/>
      <point x="225" y="710"/>
      <point x="154" y="650"/>
      <point x="136" y="550" type="curve" smooth="yes"/>
      <point x="119" y="450"/>
      <point x="168" y="390"/>
    </contour>
    <contour>
      <point x="286" y="460" type="curve"/>
      <point x="256" y="460"/>
      <point x="231" y="490"/>
      <point x="241" y="550" type="curve" smooth="yes"/>
      <point x="252" y="610"/>
      <point x="287" y="640"/>
      <point x="317" y="640" type="curve"/>
      <point x="347" y="640"/>
      <point x="372" y="610"/>
      <point x="361" y="550" type="curve" smooth="yes"/>
      <point x="351" y="490"/>
      <point x="316" y="460"/>
    </contour>
  </outline>
</glyph>
<glyph name="plusminus" format="2">
  <advance width="450"/>
  <unicode hex="00B1"/>
  <outline>
    <contour>
      <point x="206" y="150" type="line"/>
      <point x="296" y="150" type="line"/>
      <point x="322" y="300" type="line"/>
      <point x="472" y="300" type="line"/>
      <point x="487" y="380" type="line"/>
      <point x="337" y="380" type="line"/>
      <point x="365" y="540" type="line"/>
      <point x="275" y="540" type="line"/>
      <point x="247" y="380" type="line"/>
      <point x="97" y="380" type="line"/>
      <point x="82" y="300" type="line"/>
      <point x="232" y="300" type="line"/>
    </contour>
    <contour>
      <point x="37" y="45" type="line"/>
      <point x="427" y="45" type="line"/>
      <point x="442" y="125" type="line"/>
      <point x="52" y="125" type="line"/>
    </contour>
  </outline>
</glyph>
<glyph name="threesuperior" format="2">
  <advance width="270"/>
  <unicode hex="00B3"/>
  <outline>
    <contour>
      <point x="179" y="395" type="curve" smooth="yes"/>
      <point x="264" y="395"/>
      <point x="313" y="415"/>
      <point x="325" y="485" type="curve" smooth="yes"/>
      <point x="333" y="530"/>
      <point x="307" y="555"/>
      <point x="283" y="560" type="curve"/>
      <point x="304" y="565"/>
      <point x="333" y="585"/>
      <point x="339" y="620" type="curve" smooth="yes"/>
      <point x="350" y="685"/>
      <point x="309" y="705"/>
      <point x="239" y="705" type="curve" smooth="yes"/>
      <point x="204" y="705"/>
      <point x="172" y="700"/>
      <point x="152" y="694" type="curve"/>
      <point x="143" y="645" type="line"/>
      <point x="217" y="645" type="line" smooth="yes"/>
      <point x="248" y="645"/>
      <point x="256" y="630"/>
      <point x="253" y="615" type="curve" smooth="yes"/>
      <point x="250" y="600"/>
      <point x="238" y="585"/>
      <point x="213" y="585" type="curve" smooth="yes"/>
      <point x="168" y="585" type="line"/>
      <point x="157" y="525" type="line"/>
      <point x="207" y="525" type="line" smooth="yes"/>
      <point x="232" y="525"/>
      <point x="244" y="510"/>
      <point x="241" y="490" type="curve" smooth="yes"/>
      <point x="237" y="470"/>
      <point x="220" y="455"/>
      <point x="190" y="455" type="curve" smooth="yes"/>
      <point x="110" y="455" type="line"/>
      <point x="101" y="406" type="line"/>
      <point x="120" y="400"/>
      <point x="149" y="395"/>
    </contour>
  </outline>
</glyph>
<glyph name="ordmasculine" format="2">
  <advance width="320"/>
  <unicode hex="00BA"/>
  <outline>
    <contour>
      <point x="229" y="395" type="curve"/>
      <point x="304" y="395"/>
      <point x="368" y="445"/>
      <point x="386" y="550" type="curve" smooth="yes"/>
      <point x="405" y="655"/>
      <point x="359" y="705"/>
      <point x="284" y="705" type="curve"/>
      <point x="209" y="705"/>
      <point x="145" y="655"/>
      <point x="126" y="550" type="curve" smooth="yes"/>
      <point x="108" y="445"/>
      <point x="154" y="395"/>
    </contour>
    <contour>
      <point x="240" y="455" type="curve"/>
      <point x="215" y="455"/>
      <point x="199" y="480"/>
      <point x="211" y="550" type="curve" smooth="yes"/>
      <point x="224" y="620"/>
      <point x="248" y="645"/>
      <point x="273" y="645" type="curve"/>
      <point x="298" y="645"/>
      <point x="314" y="620"/>
      <point x="301" y="550" type="curve" smooth="yes"/>
      <point x="289" y="480"/>
      <point x="265" y="455"/>
    </contour>
  </outline>
</glyph>
<glyph name="AE" format="2">
  <advance width="755"/>
  <unicode hex="00C6"/>
  <outline>
    <contour>
      <point x="0" y="0" type="line"/>
      <point x="119" y="0" type="line"/>
      <point x="210" y="175" type="line"/>
      <point x="380" y="175" type="line"/>
      <point x="350" y="0" type="line"/>
      <point x="715" y="0" type="line"/>
      <point x="729" y="80" type="line"/>
      <point x="484" y="80" type="line"/>
      <point x="527" y="325" type="line"/>
      <point x="742" y="325" type="line"/>
      <point x="756" y="405" type="line"/>
      <point x="541" y="405" type="line"/>
      <point x="579" y="620" type="line"/>
      <point x="824" y="620" type="line"/>
      <point x="838" y="700" type="line"/>
      <point x="363" y="700" type="line"/>
    </contour>
    <contour>
      <point x="251" y="255" type="line"/>
      <point x="440" y="620" type="line"/>
      <point x="459" y="620" type="line"/>
      <point x="394" y="255" type="line"/>
    </contour>
  </outline>
</glyph>
<glyph name="Ecircumflex" format="2">
  <advance width="475"/>
  <unicode hex="00CA"/>
  <outline>
    <contour>
      <point x="70" y="0" type="line"/>
      <point x="435" y="0" type="line"/>
      <point x="449" y="80" type="line"/>
      <point x="204" y="80" type="line"/>
      <point x="247" y="325" type="line"/>
      <point x="462" y="325" type="line"/>
      <point x="476" y="405" type="line"/>
      <point x="261" y="405" type="line"/>
      <point x="299" y="620" type="line"/>
      <point x="544" y="620" type="line"/>
      <point x="558" y="700" type="line"/>
      <point x="193" y="700" type="line"/>
    </contour>
    <contour>
      <point x="252" y="750" type="line"/>
      <point x="328" y="750" type="line"/>
      <point x="396" y="820" type="line"/>
      <point x="440" y="750" type="line"/>
      <point x="517" y="750" type="line"/>
      <point x="460" y="880" type="line"/>
      <point x="355" y="880" type="line"/>
    </contour>
  </outline>
</glyph>
<glyph name="Edieresis" format="2">
  <advance width="475"/>
  <unicode hex="00CB"/>
  <outline>
    <contour>
      <point x="70" y="0" type="line"/>
      <point x="435" y="0" type="line"/>
      <point x="449" y="80" type="line"/>
      <point x="204" y="80" type="line"/>
      <point x="247" y="325" type="line"/>
      <point x="462" y="325" type="line"/>
      <point x="476" y="405" type="line"/>
      <point x="261" y="405" type="line"/>
      <point x="299" y="620" type="line"/>
      <point x="544" y="620" type="line"/>
      <point x="558" y="700" type="line"/>
      <point x="193" y="700" type="line"/>
    </contour>
    <contour>
      <point x="249" y="760" type="line"/>
      <point x="359" y="760" type="line"/>
      <point x="380" y="880" type="line"/>
      <point x="270" y="880" type="line"/>
    </contour>
    <contour>
      <point x="409" y="760" type="line"/>
      <point x="519" y="760" type="line"/>
      <point x="540" y="880" type="line"/>
      <point x="430" y="880" type="line"/>
    </contour>
  </outline>
</glyph>
<glyph name="Icircumflex" format="2">
  <advance width="235"/>
  <unicode hex="00CE"/>
  <outline>
    <contour>
      <point x="55" y="0" type="line"/>
      <point x="175" y="0" type="line"/>
      <point x="298" y="700" type="line"/>
      <point x="178" y="700" type="line"/>
    </contour>
    <contour>
      <point x="117" y="750" type="line"/>
      <point x="193" y="750" type="line"/>
      <point x="261" y="820" type="line"/>
      <point x="305" y="750" type="line"/>
      <point x="382" y="750" type="line"/>
      <point x="325" y="880" type="line"/>
      <point x="220" y="880" type="line"/>
    </contour>
  </outline>
</glyph>
<glyph name="Ucircumflex" format="2">
  <advance width="550"/>
  <unicode hex="00DB"/>
  <outline>
    <contour>
      <point x="273" y="-10" type="curve" smooth="yes"/>
      <point x="418" y="-10"/>
      <point x="500" y="60"/>
      <point x="532" y="240" type="curve" smooth="yes"/>
      <point x="613" y="700" type="line"/>
      <point x="493" y="700" type="line"/>
      <point x="412" y="240" type="line" smooth="yes"/>
      <point x="387" y="100"/>
      <point x="340" y="60"/>
      <point x="285" y="60" type="curve" smooth="yes"/>
      <point x="230" y="60"/>
      <point x="197" y="100"/>
      <point x="222" y="240" type="curve" smooth="yes"/>
      <point x="303" y="700" type="line"/>
      <point x="183" y="700" type="line"/>
      <point x="102" y="240" type="line" smooth="yes"/>
      <point x="70" y="60"/>
      <point x="128" y="-10"/>
    </contour>
    <contour>
      <point x="273" y="740" type="line"/>
      <point x="349" y="740" type="line"/>
      <point x="417" y="810" type="line"/>
      <point x="461" y="740" type="line"/>
      <point x="538" y="740" type="line"/>
      <point x="481" y="870" type="line"/>
      <point x="376" y="870" type="line"/>
    </contour>
  </outline>
</glyph>
<glyph name="aring" format="2">
  <advance width="490"/>
  <unicode hex="00E5"/>
  <outline>
    <contour>
      <point x="208" y="-10" type="curve" smooth="yes"/>
      <point x="263" y="-10"/>
      <point x="300" y="10"/>
      <point x="325" y="30" type="curve"/>
      <point x="330" y="30" type="line"/>
      <point x="340" y="0" type="line"/>
      <point x="425" y="0" type="line"/>
      <point x="509" y="480" type="line"/>
      <point x="463" y="500"/>
      <point x="419" y="510"/>
      <point x="349" y="510" type="curve" smooth="yes"/>
      <point x="199" y="510"/>
      <point x="117" y="440"/>
      <point x="84" y="250" type="curve" smooth="yes"/>
      <point x="50" y="60"/>
      <point x="108" y="-10"/>
    </contour>
    <contour>
      <point x="260" y="60" type="curve" smooth="yes"/>
      <point x="210" y="60"/>
      <point x="177" y="100"/>
      <point x="204" y="250" type="curve" smooth="yes"/>
      <point x="230" y="400"/>
      <point x="277" y="440"/>
      <point x="337" y="440" type="curve" smooth="yes"/>
      <point x="382" y="440" type="line"/>
      <point x="319" y="80" type="line"/>
      <point x="307" y="70"/>
      <point x="285" y="60"/>
    </contour>
    <contour>
      <point x="349" y="535" type="curve" smooth="yes"/>
      <point x="404" y="535"/>
      <point x="450" y="570"/>
      <point x="459" y="620" type="curve" smooth="yes"/>
      <point x="468" y="670"/>
      <point x="434" y="705"/>
      <point x="379" y="705" type="curve" smooth="yes"/>
      <point x="324" y="705"/>
      <point x="278" y="670"/>
      <point x="269" y="620" type="curve" smooth="yes"/>
      <point x="260" y="570"/>
      <point x="294" y="535"/>
    </contour>
    <contour>
      <point x="359" y="590" type="curve" smooth="yes"/>
      <point x="344" y="590"/>
      <point x="330" y="600"/>
      <point x="334" y="620" type="curve" smooth="yes"/>
      <point x="337" y="640"/>
      <point x="354" y="650"/>
      <point x="369" y="650" type="curve" smooth="yes"/>
      <point x="384" y="650"/>
      <point x="397" y="640"/>
      <point x="394" y="620" type="curve" smooth="yes"/>
      <point x="390" y="600"/>
      <point x="374" y="590"/>
    </contour>
  </outline>
</glyph>
<glyph name="ae" format="2">
  <advance width="715"/>
  <unicode hex="00E6"/>
  <outline>
    <contour>
      <point x="203" y="-10" type="curve" smooth="yes"/>
      <point x="283" y="-10"/>
      <point x="327" y="15"/>
      <point x="363" y="50" type="curve"/>
      <point x="387" y="15"/>
      <point x="428" y="-10"/>
      <point x="513" y="-10" type="curve" smooth="yes"/>
      <point x="563" y="-10"/>
      <point x="615" y="0"/>
      <point x="646" y="10" type="curve"/>
      <point x="655" y="60" type="line"/>
      <point x="545" y="60" type="line" smooth="yes"/>
      <point x="460" y="60"/>
      <point x="427" y="100"/>
      <point x="447" y="215" type="curve"/>
      <point x="527" y="215" type="line" smooth="yes"/>
      <point x="652" y="215"/>
      <point x="730" y="260"/>
      <point x="748" y="360" type="curve" smooth="yes"/>
      <point x="765" y="455"/>
      <point x="704" y="510"/>
      <point x="579" y="510" type="curve" smooth="yes"/>
      <point x="514" y="510"/>
      <point x="470" y="485"/>
      <point x="434" y="450" type="curve"/>
      <point x="410" y="485"/>
      <point x="369" y="510"/>
      <point x="294" y="510" type="curve" smooth="yes"/>
      <point x="254" y="510"/>
      <point x="203" y="500"/>
      <point x="171" y="490" type="curve"/>
      <point x="162" y="440" type="line"/>
      <point x="262" y="440" type="line" smooth="yes"/>
      <point x="327" y="440"/>
      <point x="364" y="420"/>
      <point x="349" y="340" type="curve" smooth="yes"/>
      <point x="339" y="280" type="line"/>
      <point x="315" y="285"/>
      <point x="286" y="290"/>
      <point x="256" y="290" type="curve" smooth="yes"/>
      <point x="161" y="290"/>
      <point x="85" y="260"/>
      <point x="64" y="140" type="curve" smooth="yes"/>
      <point x="43" y="20"/>
      <point x="108" y="-10"/>
    </contour>
    <contour>
      <point x="245" y="60" type="curve" smooth="yes"/>
      <point x="210" y="60"/>
      <point x="174" y="80"/>
      <point x="184" y="140" type="curve" smooth="yes"/>
      <point x="195" y="200"/>
      <point x="238" y="220"/>
      <point x="273" y="220" type="curve" smooth="yes"/>
      <point x="328" y="220" type="line"/>
      <point x="304" y="80" type="line"/>
      <point x="292" y="70"/>
      <point x="270" y="60"/>
    </contour>
    <contour>
      <point x="460" y="285" type="line"/>
      <point x="483" y="415"/>
      <point x="518" y="445"/>
      <point x="573" y="445" type="curve" smooth="yes"/>
      <point x="613" y="445"/>
      <point x="639" y="420"/>
      <point x="628" y="360" type="curve" smooth="yes"/>
      <point x="619" y="310"/>
      <point x="585" y="285"/>
      <point x="540" y="285" type="curve" smooth="yes"/>
    </contour>
  </outline>
</glyph>
<glyph name="Gcommaaccent" format="2">
  <advance width="525"/>
  <unicode hex="0122"/>
  <outline>
    <contour>
      <point x="298" y="-10" type="curve" smooth="yes"/>
      <point x="373" y="-10"/>
      <point x="435" y="0"/>
      <point x="466" y="10" type="curve"/>
      <point x="532" y="380" type="line"/>
      <point x="412" y="380" type="line"/>
      <point x="356" y="65" type="line"/>
      <point x="331" y="65" type="line" smooth="yes"/>
      <point x="236" y="65"/>
      <point x="187" y="125"/>
      <point x="226" y="350" type="curve" smooth="yes"/>
      <point x="266" y="575"/>
      <point x="336" y="635"/>
      <point x="421" y="635" type="curve" smooth="yes"/>
      <point x="551" y="635" type="line"/>
      <point x="561" y="690" type="line"/>
      <point x="533" y="700"/>
      <point x="475" y="710"/>
      <point x="405" y="710" type="curve" smooth="yes"/>
      <point x="250" y="710"/>
      <point x="156" y="630"/>
      <point x="106" y="350" type="curve" smooth="yes"/>
      <point x="57" y="70"/>
      <point x="123" y="-10"/>
    </contour>
    <contour>
      <point x="191" y="-220" type="line"/>
      <point x="266" y="-220" type="line"/>
      <point x="327" y="-70" type="line"/>
      <point x="217" y="-70" type="line"/>
    </contour>
  </outline>
</glyph>
<glyph name="ij" format="2">
  <advance width="490"/>
  <unicode hex="0133"/>
  <outline>
    <contour>
      <point x="227" y="-210" type="curve" smooth="yes"/>
      <point x="312" y="-210"/>
      <point x="388" y="-180"/>
      <point x="412" y="-40" type="curve"/>
      <point x="508" y="500" type="line"/>
      <point x="158" y="500" type="line"/>
      <point x="70" y="0" type="line"/>
      <point x="190" y="0" type="line"/>
      <point x="264" y="425" type="line"/>
      <point x="374" y="425" type="line"/>
      <point x="292" y="-40" type="line"/>
      <point x="280" y="-110"/>
      <point x="245" y="-140"/>
      <point x="210" y="-140" type="curve"/>
      <point x="140" y="-140" type="line"/>
      <point x="131" y="-190" type="line"/>
      <point x="154" y="-200"/>
      <point x="187" y="-210"/>
    </contour>
    <contour>
      <point x="168" y="560" type="line"/>
      <point x="288" y="560" type="line"/>
      <point x="309" y="680" type="line"/>
      <point x="189" y="680" type="line"/>
    </contour>
    <contour>
      <point x="398" y="560" type="line"/>
      <point x="518" y="560" type="line"/>
      <point x="539" y="680" type="line"/>
      <point x="419" y="680" type="line"/>
    </contour>
  </outline>
</glyph>
<glyph name="lcommaaccent" format="2">
  <advance width="260"/>
  <unicode hex="013C"/>
  <outline>
    <contour>
      <point x="70" y="0" type="line"/>
      <point x="190" y="0" type="line"/>
      <point x="313" y="700" type="line"/>
      <point x="193" y="700" type="line"/>
    </contour>
    <contour>
      <point x="37" y="-210" type="line"/>
      <point x="112" y="-210" type="line"/>
      <point x="174" y="-60" type="line"/>
      <point x="64" y="-60" type="line"/>
    </contour>
  </outline>
</glyph>
<glyph name="Lslash" format="2">
  <advance width="445"/>
  <unicode hex="0141"/>
  <outline>
    <contour>
      <point x="70" y="0" type="line"/>
      <point x="435" y="0" type="line"/>
      <point x="449" y="80" type="line"/>
      <point x="204" y="80" type="line"/>
      <point x="252" y="355" type="line"/>
      <point x="354" y="420" type="line"/>
      <point x="319" y="480" type="line"/>
      <point x="268" y="448" type="line"/>
      <point x="313" y="700" type="line"/>
      <point x="193" y="700" type="line"/>
      <point x="133" y="362" type="line"/>
      <point x="43" y="305" type="line"/>
      <point x="78" y="245" type="line"/>
      <point x="117" y="270" type="line"/>
    </contour>
  </outline>
</glyph>
<glyph name="Nacute" format="2">
  <advance width="570"/>
  <unicode hex="0143"/>
  <outline>
    <contour>
      <point x="70" y="0" type="line"/>
      <point x="185" y="0" type="line"/>
      <point x="266" y="460" type="line"/>
      <point x="271" y="460" type="line"/>
      <point x="380" y="0" type="line"/>
      <point x="500" y="0" type="line"/>
      <point x="623" y="700" type="line"/>
      <point x="508" y="700" type="line"/>
      <point x="427" y="240" type="line"/>
      <point x="422" y="240" type="line"/>
      <point x="313" y="700" type="line"/>
      <point x="193" y="700" type="line"/>
    </contour>
    <contour>
      <point x="377" y="750" type="line"/>
      <point x="452" y="750" type="line"/>
      <point x="550" y="880" type="line"/>
      <point x="435" y="880" type="line"/>
    </contour>
  </outline>
</glyph>
<glyph name="OE" format="2">
  <advance width="765"/>
  <unicode hex="0152"/>
  <outline>
    <contour>
      <point x="345" y="0" type="curve" smooth="yes"/>
      <point x="725" y="0" type="line"/>
      <point x="739" y="80" type="line"/>
      <point x="494" y="80" type="line"/>
      <point x="537" y="325" type="line"/>
      <point x="752" y="325" type="line"/>
      <point x="766" y="405" type="line"/>
      <point x="551" y="405" type="line"/>
      <point x="589" y="620" type="line"/>
      <point x="834" y="620" type="line"/>
      <point x="848" y="700" type="line"/>
      <point x="468" y="700" type="line"/>
      <point x="273" y="700"/>
      <point x="144" y="590"/>
      <point x="101" y="350" type="curve"/>
      <point x="59" y="110"/>
      <point x="150" y="0"/>
    </contour>
    <contour>
      <point x="359" y="80" type="line" smooth="yes"/>
      <point x="244" y="80"/>
      <point x="186" y="150"/>
      <point x="221" y="350" type="curve"/>
      <point x="256" y="550"/>
      <point x="339" y="620"/>
      <point x="454" y="620" type="curve" smooth="yes"/>
      <point x="469" y="620" type="line"/>
      <point x="374" y="80" type="line"/>
    </contour>
  </outline>
</glyph>
<glyph name="uogonek" format="2">
  <advance width="505"/>
  <unicode hex="0173"/>
  <outline>
    <contour>
      <point x="400" y="-160" type="curve" smooth="yes"/>
      <point x="445" y="-160"/>
      <point x="479" y="-145"/>
      <point x="479" y="-145" type="curve"/>
      <point x="487" y="-100" type="line"/>
      <point x="451" y="-100" type="line" smooth="yes"/>
      <point x="416" y="-100"/>
      <point x="400" y="-80"/>
      <point x="407" y="-45" type="curve" smooth="yes"/>
      <point x="415" y="0" type="line"/>
      <point x="440" y="0" type="line"/>
      <point x="528" y="500" type="line"/>
      <point x="408" y="500" type="line"/>
      <point x="334" y="80" type="line"/>
      <point x="322" y="70"/>
      <point x="300" y="60"/>
      <point x="275" y="60" type="curve" smooth="yes"/>
      <point x="235" y="60"/>
      <point x="199" y="80"/>
      <point x="211" y="150" type="curve" smooth="yes"/>
      <point x="273" y="500" type="line"/>
      <point x="153" y="500" type="line"/>
      <point x="91" y="150" type="line" smooth="yes"/>
      <point x="68" y="20"/>
      <point x="133" y="-10"/>
      <point x="218" y="-10" type="curve" smooth="yes"/>
      <point x="278" y="-10"/>
      <point x="315" y="10"/>
      <point x="340" y="30" type="curve"/>
      <point x="345" y="30" type="line"/>
      <point x="355" y="0" type="line"/>
      <point x="365" y="0" type="line"/>
      <point x="365" y="0"/>
      <point x="333" y="-30"/>
      <point x="324" y="-80" type="curve" smooth="yes"/>
      <point x="316" y="-125"/>
      <point x="345" y="-160"/>
    </contour>
  </outline>
</glyph>
<glyph name="ogonek" format="2">
  <advance width="206"/>
  <unicode hex="02DB"/>
  <outline>
    <contour>
      <point x="81" y="-160" type="curve" smooth="yes"/>
      <point x="126" y="-160"/>
      <point x="160" y="-145"/>
      <point x="160" y="-145" type="curve"/>
      <point x="168" y="-100" type="line"/>
      <point x="132" y="-100" type="line" smooth="yes"/>
      <point x="97" y="-100"/>
      <point x="81" y="-80"/>
      <point x="88" y="-45" type="curve" smooth="yes"/>
      <point x="96" y="0" type="line"/>
      <point x="46" y="0" type="line"/>
      <point x="46" y="0"/>
      <point x="14" y="-30"/>
      <point x="5" y="-80" type="curve" smooth="yes"/>
      <point x="-2" y="-125"/>
      <point x="26" y="-160"/>
    </contour>
  </outline>
</glyph>
<glyph name="hungarumlautcomb" format="2">
  <unicode hex="030B"/>
  <anchor x="203" y="500" name="_top"/>
  <anchor x="259" y="690" name="top"/>
  <outline>
    <contour>
      <point x="235" y="560" type="line"/>
      <point x="300" y="560" type="line"/>
      <point x="399" y="690" type="line"/>
      <point x="294" y="690" type="line"/>
    </contour>
    <contour>
      <point x="105" y="560" type="line"/>
      <point x="170" y="560" type="line"/>
      <point x="269" y="690" type="line"/>
      <point x="164" y="690" type="line"/>
    </contour>
  </outline>
</glyph>
<glyph name="Tshe-cy" format="2">
  <advance width="580"/>
  <unicode hex="040B"/>
  <outline>
    <contour>
      <point x="120" y="0" type="line"/>
      <point x="240" y="0" type="line"/>
      <point x="304" y="365" type="line"/>
      <point x="359" y="365" type="line" smooth="yes"/>
      <point x="439" y="365"/>
      <point x="472" y="325"/>
      <point x="458" y="245" type="curve" smooth="yes"/>
      <point x="415" y="0" type="line"/>
      <point x="535" y="0" type="line"/>
      <point x="578" y="245" type="line" smooth="yes"/>
      <point x="602" y="385"/>
      <point x="553" y="445"/>
      <point x="413" y="445" type="curve" smooth="yes"/>
      <point x="388" y="445"/>
      <point x="342" y="440"/>
      <point x="316" y="435" type="curve"/>
      <point x="349" y="620" type="line"/>
      <point x="489" y="620" type="line"/>
      <point x="503" y="700" type="line"/>
      <point x="123" y="700" type="line"/>
      <point x="109" y="620" type="line"/>
      <point x="229" y="620" type="line"/>
    </contour>
  </outline>
</glyph>
<glyph name="Ka-cy" format="2">
  <advance width="520"/>
  <unicode hex="041A"/>
  <anchor x="331" y="0" name="bottomright"/>
  <anchor x="278" y="350" name="center"/>
  <anchor x="392" y="700" name="top"/>
  <outline>
    <contour>
      <point x="443" y="-10" type="curve" smooth="yes"/>
      <point x="488" y="-10"/>
      <point x="515" y="0"/>
      <point x="515" y="0" type="curve"/>
      <point x="524" y="55" type="line"/>
      <point x="479" y="55"/>
      <point x="461" y="80"/>
      <point x="459" y="110" type="curve" smooth="yes"/>
      <point x="452" y="240" type="line" smooth="yes"/>
      <point x="448" y="320"/>
      <point x="411" y="350"/>
      <point x="374" y="363" type="curve"/>
      <point x="374" y="367" type="line"/>
      <point x="417" y="380"/>
      <point x="448" y="410"/>
      <point x="486" y="490" type="curve" smooth="yes"/>
      <point x="534" y="590" type="line" smooth="yes"/>
      <point x="550" y="625"/>
      <point x="573" y="645"/>
      <point x="618" y="645" type="curve"/>
      <point x="628" y="700" type="line"/>
      <point x="628" y="700"/>
      <point x="605" y="710"/>
      <point x="560" y="710" type="curve" smooth="yes"/>
      <point x="485" y="710"/>
      <point x="447" y="670"/>
      <point x="409" y="590" type="curve" smooth="yes"/>
      <point x="361" y="490" type="line" smooth="yes"/>
      <point x="330" y="425"/>
      <point x="306" y="405"/>
      <point x="281" y="405" type="curve" smooth="yes"/>
      <point x="261" y="405" type="line"/>
      <point x="313" y="700" type="line"/>
      <point x="193" y="700" type="line"/>
      <point x="70" y="0" type="line"/>
      <point x="190" y="0" type="line"/>
      <point x="247" y="325" type="line"/>
      <point x="267" y="325" type="line" smooth="yes"/>
      <point x="302" y="325"/>
      <point x="323" y="305"/>
      <point x="327" y="240" type="curve" smooth="yes"/>
      <point x="334" y="110" type="line" smooth="yes"/>
      <point x="338" y="30"/>
      <point x="368" y="-10"/>
    </contour>
  </outline>
</glyph>
<glyph name="El-cy" format="2">
  <advance width="560"/>
  <unicode hex="041B"/>
  <outline>
    <contour>
      <point x="68" y="-10" type="curve" smooth="yes"/>
      <point x="148" y="-10"/>
      <point x="215" y="50"/>
      <point x="252" y="210" type="curve" smooth="yes"/>
      <point x="345" y="620" type="line"/>
      <point x="479" y="620" type="line"/>
      <point x="370" y="0" type="line"/>
      <point x="490" y="0" type="line"/>
      <point x="613" y="700" type="line"/>
      <point x="243" y="700" type="line"/>
      <point x="132" y="210" type="line" smooth="yes"/>
      <point x="105" y="95"/>
      <point x="59" y="55"/>
      <point x="9" y="55" type="curve"/>
      <point x="0" y="0" type="line"/>
      <point x="0" y="0"/>
      <point x="23" y="-10"/>
    </contour>
  </outline>
</glyph>
<glyph name="Shcha-cy" format="2">
  <advance width="810"/>
  <unicode hex="0429"/>
  <outline>
    <contour>
      <point x="683" y="-150" type="curve"/>
      <point x="758" y="-150" type="line"/>
      <point x="799" y="80" type="line"/>
      <point x="734" y="80" type="line"/>
      <point x="843" y="700" type="line"/>
      <point x="723" y="700" type="line"/>
      <point x="614" y="80" type="line"/>
      <point x="469" y="80" type="line"/>
      <point x="578" y="700" type="line"/>
      <point x="458" y="700" type="line"/>
      <point x="349" y="80" type="line"/>
      <point x="204" y="80" type="line"/>
      <point x="313" y="700" type="line"/>
      <point x="193" y="700" type="line"/>
      <point x="70" y="0" type="line"/>
      <point x="670" y="0" type="line"/>
      <point x="664" y="-60"/>
      <point x="670" y="-110"/>
    </contour>
  </outline>
</glyph>
<glyph name="Iu-cy" format="2">
  <advance width="745"/>
  <unicode hex="042E"/>
  <outline>
    <contour>
      <point x="473" y="-10" type="curve" smooth="yes"/>
      <point x="608" y="-10"/>
      <point x="714" y="80"/>
      <point x="761" y="350" type="curve" smooth="yes"/>
      <point x="809" y="620"/>
      <point x="735" y="710"/>
      <point x="600" y="710" type="curve" smooth="yes"/>
      <point x="475" y="710"/>
      <point x="371" y="630"/>
      <point x="320" y="395" type="curve"/>
      <point x="259" y="395" type="line"/>
      <point x="313" y="700" type="line"/>
      <point x="193" y="700" type="line"/>
      <point x="70" y="0" type="line"/>
      <point x="190" y="0" type="line"/>
      <point x="245" y="315" type="line"/>
      <point x="305" y="315" type="line"/>
      <point x="272" y="70"/>
      <point x="343" y="-10"/>
    </contour>
    <contour>
      <point x="485" y="60" type="curve" smooth="yes"/>
      <point x="435" y="60"/>
      <point x="391" y="120"/>
      <point x="431" y="350" type="curve" smooth="yes"/>
      <point x="472" y="580"/>
      <point x="537" y="640"/>
      <point x="587" y="640" type="curve" smooth="yes"/>
      <point x="637" y="640"/>
      <point x="682" y="580"/>
      <point x="641" y="350" type="curve" smooth="yes"/>
      <point x="601" y="120"/>
      <point x="535" y="60"/>
    </contour>
  </outline>
</glyph>
<glyph name="u-cy" format="2">
  <advance width="475"/>
  <unicode hex="0443"/>
  <anchor x="312" y="500" name="top"/>
  <outline>
    <contour>
      <point x="132" y="-210" type="curve" smooth="yes"/>
      <point x="227" y="-210"/>
      <point x="297" y="-150"/>
      <point x="348" y="-10" type="curve" smooth="yes"/>
      <point x="533" y="500" type="line"/>
      <point x="418" y="500" type="line"/>
      <point x="263" y="75" type="line"/>
      <point x="263" y="75"/>
      <point x="246" y="76"/>
      <point x="244" y="110" type="curve" smooth="yes"/>
      <point x="223" y="500" type="line"/>
      <point x="108" y="500" type="line"/>
      <point x="129" y="110" type="line" smooth="yes"/>
      <point x="133" y="40"/>
      <point x="173" y="-10"/>
      <point x="233" y="-10" type="curve"/>
      <point x="194" y="-115"/>
      <point x="160" y="-140"/>
      <point x="110" y="-140" type="curve" smooth="yes"/>
      <point x="45" y="-140" type="line"/>
      <point x="36" y="-190" type="line"/>
      <point x="59" y="-200"/>
      <point x="92" y="-210"/>
    </contour>
  </outline>
</glyph>
<glyph name="hardsign-cy" format="2">
  <advance width="530"/>
  <unicode hex="044A"/>
  <outline>
    <contour>
      <point x="293" y="-10" type="curve" smooth="yes"/>
      <point x="423" y="-10"/>
      <point x="498" y="20"/>
      <point x="522" y="155" type="curve" smooth="yes"/>
      <point x="546" y="290"/>
      <point x="481" y="320"/>
      <point x="381" y="320" type="curve" smooth="yes"/>
      <point x="356" y="320"/>
      <point x="320" y="315"/>
      <point x="294" y="310" type="curve"/>
      <point x="328" y="500" type="line"/>
      <point x="108" y="500" type="line"/>
      <point x="94" y="425" type="line"/>
      <point x="194" y="425" type="line"/>
      <point x="121" y="10" type="line"/>
      <point x="169" y="-5"/>
      <point x="218" y="-10"/>
    </contour>
    <contour>
      <point x="250" y="60" type="line"/>
      <point x="283" y="245" type="line"/>
      <point x="338" y="245" type="line" smooth="yes"/>
      <point x="378" y="245"/>
      <point x="414" y="225"/>
      <point x="402" y="155" type="curve" smooth="yes"/>
      <point x="389" y="80"/>
      <point x="345" y="60"/>
      <point x="305" y="60" type="curve" smooth="yes"/>
    </contour>
  </outline>
</glyph>
<glyph name="yeru-cy" format="2">
  <advance width="675"/>
  <unicode hex="044B"/>
  <anchor x="422" y="500" name="top"/>
  <outline>
    <contour>
      <point x="238" y="-10" type="curve" smooth="yes"/>
      <point x="363" y="-10"/>
      <point x="438" y="20"/>
      <point x="462" y="155" type="curve" smooth="yes"/>
      <point x="486" y="290"/>
      <point x="421" y="320"/>
      <point x="326" y="320" type="curve" smooth="yes"/>
      <point x="301" y="320"/>
      <point x="265" y="315"/>
      <point x="239" y="310" type="curve"/>
      <point x="273" y="500" type="line"/>
      <point x="153" y="500" type="line"/>
      <point x="66" y="10" type="line"/>
      <point x="114" y="-5"/>
      <point x="163" y="-10"/>
    </contour>
    <contour>
      <point x="195" y="60" type="line"/>
      <point x="228" y="245" type="line"/>
      <point x="283" y="245" type="line" smooth="yes"/>
      <point x="318" y="245"/>
      <point x="354" y="225"/>
      <point x="342" y="155" type="curve" smooth="yes"/>
      <point x="329" y="80"/>
      <point x="285" y="60"/>
      <point x="250" y="60" type="curve" smooth="yes"/>
    </contour>
    <contour>
      <point x="490" y="0" type="line"/>
      <point x="610" y="0" type="line"/>
      <point x="698" y="500" type="line"/>
      <point x="578" y="500" type="line"/>
    </contour>
  </outline>
</glyph>
<glyph name="Izhitsa-cy" format="2">
  <advance width="543"/>
  <unicode hex="0474"/>
  <outline>
    <contour>
      <point x="184" y="0" type="line"/>
      <point x="334" y="0" type="line"/>
      <point x="569" y="557" type="line" smooth="yes"/>
      <point x="596" y="623"/>
      <point x="632" y="645"/>
      <point x="671" y="645" type="curve"/>
      <point x="681" y="700" type="line"/>
      <point x="681" y="700"/>
      <point x="658" y="710"/>
      <point x="613" y="710" type="curve" smooth="yes"/>
      <point x="548" y="710"/>
      <point x="493" y="673"/>
      <point x="453" y="572" type="curve" smooth="yes"/>
      <point x="289" y="155" type="line"/>
      <point x="285" y="155" type="line"/>
      <point x="263" y="700" type="line"/>
      <point x="138" y="700" type="line"/>
    </contour>
  </outline>
</glyph>
<glyph name="kaverticalstroke-cy" format="2">
  <advance width="510"/>
  <unicode hex="049D"/>
  <anchor x="281" y="260" name="_center"/>
  <outline>
    <contour>
      <point x="433" y="-10" type="curve" smooth="yes"/>
      <point x="468" y="-10"/>
      <point x="500" y="0"/>
      <point x="500" y="0" type="curve"/>
      <point x="509" y="50" type="line"/>
      <point x="474" y="50"/>
      <point x="457" y="70"/>
      <point x="456" y="90" type="curve" smooth="yes"/>
      <point x="450" y="170" type="line" smooth="yes"/>
      <point x="445" y="230"/>
      <point x="415" y="255"/>
      <point x="380" y="263" type="curve"/>
      <point x="381" y="267" type="line"/>
      <point x="413" y="275"/>
      <point x="442" y="299"/>
      <point x="473" y="355" type="curve" smooth="yes"/>
      <point x="509" y="420" type="line" smooth="yes"/>
      <point x="518" y="435"/>
      <point x="534" y="450"/>
      <point x="569" y="450" type="curve"/>
      <point x="578" y="500" type="line"/>
      <point x="578" y="500"/>
      <point x="550" y="510"/>
      <point x="515" y="510" type="curve" smooth="yes"/>
      <point x="455" y="510"/>
      <point x="420" y="480"/>
      <point x="391" y="430" type="curve" smooth="yes"/>
      <point x="348" y="355" type="line" smooth="yes"/>
      <point x="322" y="310"/>
      <point x="308" y="300"/>
      <point x="293" y="300" type="curve"/>
      <point x="238" y="300" type="line"/>
      <point x="273" y="500" type="line"/>
      <point x="153" y="500" type="line"/>
      <point x="65" y="0" type="line"/>
      <point x="185" y="0" type="line"/>
      <point x="225" y="225" type="line"/>
      <point x="280" y="225" type="line" smooth="yes"/>
      <point x="305" y="225"/>
      <point x="322" y="205"/>
      <point x="325" y="170" type="curve" smooth="yes"/>
      <point x="333" y="75" type="line" smooth="yes"/>
      <point x="337" y="25"/>
      <point x="368" y="-10"/>
    </contour>
    <contour>
      <point x="230" y="125" type="line"/>
      <point x="284" y="125" type="line"/>
      <point x="332" y="395" type="line"/>
      <point x="278" y="395" type="line"/>
    </contour>
  </outline>
</glyph>
<glyph name="kabashkir-cy" format="2">
  <advance width="524"/>
  <unicode hex="04A1"/>
  <anchor x="504" y="0" name="bottomright"/>
  <anchor x="335" y="260" name="center"/>
  <anchor x="387" y="500" name="top"/>
  <outline>
    <contour>
      <point x="447" y="-10" type="curve" smooth="yes"/>
      <point x="482" y="-10"/>
      <point x="514" y="0"/>
      <point x="514" y="0" type="curve"/>
      <point x="523" y="50" type="line"/>
      <point x="488" y="50"/>
      <point x="471" y="70"/>
      <point x="470" y="90" type="curve" smooth="yes"/>
      <point x="464" y="170" type="line" smooth="yes"/>
      <point x="459" y="230"/>
      <point x="429" y="255"/>
      <point x="394" y="263" type="curve"/>
      <point x="395" y="267" type="line"/>
      <point x="427" y="275"/>
      <point x="456" y="299"/>
      <point x="487" y="355" type="curve" smooth="yes"/>
      <point x="523" y="420" type="line" smooth="yes"/>
      <point x="532" y="435"/>
      <point x="548" y="450"/>
      <point x="583" y="450" type="curve"/>
      <point x="592" y="500" type="line"/>
      <point x="592" y="500"/>
      <point x="564" y="510"/>
      <point x="529" y="510" type="curve" smooth="yes"/>
      <point x="469" y="510"/>
      <point x="434" y="480"/>
      <point x="405" y="430" type="curve" smooth="yes"/>
      <point x="362" y="355" type="line" smooth="yes"/>
      <point x="336" y="310"/>
      <point x="322" y="300"/>
      <point x="307" y="300" type="curve"/>
      <point x="292" y="300" type="line"/>
      <point x="327" y="500" type="line"/>
      <point x="207" y="500" type="line"/>
      <point x="119" y="0" type="line"/>
      <point x="239" y="0" type="line"/>
      <point x="279" y="225" type="line"/>
      <point x="294" y="225" type="line" smooth="yes"/>
      <point x="319" y="225"/>
      <point x="336" y="205"/>
      <point x="339" y="170" type="curve" smooth="yes"/>
      <point x="347" y="75" type="line" smooth="yes"/>
      <point x="351" y="25"/>
      <point x="382" y="-10"/>
    </contour>
    <contour>
      <point x="94" y="425" type="line"/>
      <point x="194" y="425" type="line"/>
      <point x="327" y="500" type="line"/>
      <point x="107" y="500" type="line"/>
    </contour>
  </outline>
</glyph>
<glyph name="Esdescender-cy" format="2">
  <advance width="455"/>
  <unicode hex="04AA"/>
  <outline>
    <contour>
      <point x="254" y="-145" type="curve"/>
      <point x="329" y="-145" type="line"/>
      <point x="360" y="35" type="line"/>
      <point x="239" y="0" type="line"/>
      <point x="234" y="-60"/>
      <point x="240" y="-110"/>
    </contour>
    <component base="Es-cy"/>
  </outline>
</glyph>
<glyph name="ustraitstroke-cy" format="2">
  <advance width="470"/>
  <unicode hex="04B1"/>
  <anchor x="231" y="-19" name="center"/>
  <outline>
    <contour>
      <point x="139" y="-200" type="line"/>
      <point x="259" y="-200" type="line"/>
      <point x="281" y="-55" type="line"/>
      <point x="543" y="500" type="line"/>
      <point x="423" y="500" type="line"/>
      <point x="255" y="105" type="line"/>
      <point x="251" y="105" type="line"/>
      <point x="223" y="500" type="line"/>
      <point x="103" y="500" type="line"/>
      <point x="167" y="-41" type="line"/>
    </contour>
    <contour>
      <point x="70" y="-56" type="line"/>
      <point x="265" y="-56" type="line"/>
      <point x="300" y="-56"/>
      <point x="351" y="-46"/>
      <point x="383" y="-36" type="curve"/>
      <point x="393" y="18" type="line"/>
      <point x="83" y="18" type="line"/>
    </contour>
  </outline>
</glyph>
<glyph name="Obarred-cy" format="2">
  <advance width="550"/>
  <unicode hex="04E8"/>
  <outline>
    <contour>
      <point x="193" y="313" type="line"/>
      <point x="388" y="313" type="line"/>
      <point x="423" y="313"/>
      <point x="475" y="323"/>
      <point x="507" y="333" type="curve"/>
      <point x="517" y="387" type="line"/>
      <point x="207" y="387" type="line"/>
    </contour>
    <contour>
      <point x="273" y="-10" type="curve"/>
      <point x="413" y="-10"/>
      <point x="519" y="80"/>
      <point x="566" y="350" type="curve" smooth="yes"/>
      <point x="614" y="620"/>
      <point x="540" y="710"/>
      <point x="400" y="710" type="curve"/>
      <point x="260" y="710"/>
      <point x="154" y="620"/>
      <point x="106" y="350" type="curve"/>
      <point x="59" y="80"/>
      <point x="133" y="-10"/>
    </contour>
    <contour>
      <point x="285" y="60" type="curve" smooth="yes"/>
      <point x="230" y="60"/>
      <point x="186" y="120"/>
      <point x="226" y="350" type="curve"/>
      <point x="267" y="580"/>
      <point x="332" y="640"/>
      <point x="387" y="640" type="curve"/>
      <point x="442" y="640"/>
      <point x="487" y="580"/>
      <point x="446" y="350" type="curve" smooth="yes"/>
      <point x="406" y="120"/>
      <point x="340" y="60"/>
    </contour>
  </outline>
</glyph>
<glyph name="obarred-cy" format="2">
  <advance width="480"/>
  <unicode hex="04E9"/>
  <outline>
    <contour>
      <point x="128" y="213" type="line"/>
      <point x="323" y="213" type="line"/>
      <point x="358" y="213"/>
      <point x="410" y="223"/>
      <point x="442" y="233" type="curve"/>
      <point x="452" y="287" type="line"/>
      <point x="142" y="287" type="line"/>
    </contour>
    <contour>
      <point x="238" y="-10" type="curve"/>
      <point x="368" y="-10"/>
      <point x="450" y="60"/>
      <point x="484" y="250" type="curve"/>
      <point x="517" y="440"/>
      <point x="459" y="510"/>
      <point x="329" y="510" type="curve"/>
      <point x="199" y="510"/>
      <point x="117" y="440"/>
      <point x="84" y="250" type="curve" smooth="yes"/>
      <point x="50" y="60"/>
      <point x="108" y="-10"/>
    </contour>
    <contour>
      <point x="249" y="55" type="curve"/>
      <point x="204" y="55"/>
      <point x="176" y="95"/>
      <point x="204" y="250" type="curve" smooth="yes"/>
      <point x="231" y="405"/>
      <point x="273" y="445"/>
      <point x="318" y="445" type="curve"/>
      <point x="363" y="445"/>
      <point x="391" y="405"/>
      <point x="364" y="250" type="curve"/>
      <point x="336" y="95"/>
      <point x="294" y="55"/>
    </contour>
  </outline>
</glyph>
<glyph name="gedescender-cy" format="2">
  <advance width="390"/>
  <unicode hex="04F7"/>
  <anchor x="34" y="0" name="bottomright"/>
  <anchor x="178" y="250" name="center"/>
  <anchor x="295" y="500" name="top"/>
  <outline>
    <contour>
      <point x="34" y="0" type="line"/>
      <point x="154" y="0" type="line"/>
      <point x="229" y="425" type="line"/>
      <point x="424" y="425" type="line"/>
      <point x="437" y="500" type="line"/>
      <point x="122" y="500" type="line"/>
    </contour>
    <contour>
      <point x="113" y="-145" type="curve"/>
      <point x="188" y="-145" type="line"/>
      <point x="227" y="75" type="line"/>
      <point x="47" y="75" type="line"/>
      <point x="34" y="0" type="line"/>
      <point x="99" y="0" type="line"/>
      <point x="93" y="-60"/>
      <point x="99" y="-110"/>
    </contour>
  </outline>
</glyph>
<glyph name="quoteright" format="2">
  <advance width="195"/>
  <unicode hex="2019"/>
  <outline>
    <contour>
      <point x="123" y="475" type="line"/>
      <point x="203" y="475" type="line"/>
      <point x="284" y="705" type="line"/>
      <point x="164" y="705" type="line"/>
    </contour>
  </outline>
</glyph>
<glyph name="daggerdbl" format="2">
  <advance width="470"/>
  <unicode hex="2021"/>
  <outline>
    <contour>
      <point x="139" y="-200" type="line"/>
      <point x="259" y="-200" type="line"/>
      <point x="301" y="35" type="line"/>
      <point x="456" y="35" type="line"/>
      <point x="470" y="115" type="line"/>
      <point x="315" y="115" type="line"/>
      <point x="362" y="385" type="line"/>
      <point x="517" y="385" type="line"/>
      <point x="531" y="465" type="line"/>
      <point x="376" y="465" type="line"/>
      <point x="418" y="700" type="line"/>
      <point x="298" y="700" type="line"/>
      <point x="256" y="465" type="line"/>
      <point x="101" y="465" type="line"/>
      <point x="87" y="385" type="line"/>
      <point x="242" y="385" type="line"/>
      <point x="195" y="115" type="line"/>
      <point x="40" y="115" type="line"/>
      <point x="26" y="35" type="line"/>
      <point x="181" y="35" type="line"/>
    </contour>
  </outline>
</glyph>
<glyph name="guilsinglright" format="2">
  <advance width="325"/>
  <unicode hex="203A"/>
  <outline>
    <contour>
      <point x="115" y="0" type="line"/>
      <point x="349" y="250" type="line"/>
      <point x="203" y="500" type="line"/>
      <point x="108" y="445" type="line"/>
      <point x="219" y="253" type="line"/>
      <point x="218" y="247" type="line"/>
      <point x="39" y="55" type="line"/>
    </contour>
  </outline>
</glyph>
<glyph name="foursuperior" format="2">
  <advance width="331"/>
  <unicode hex="2074"/>
  <outline>
    <contour>
      <point x="247" y="400" type="line"/>
      <point x="332" y="400" type="line"/>
      <point x="341" y="455" type="line"/>
      <point x="366" y="455" type="line"/>
      <point x="377" y="515" type="line"/>
      <point x="352" y="515" type="line"/>
      <point x="384" y="700" type="line"/>
      <point x="299" y="700" type="line"/>
      <point x="127" y="515" type="line"/>
      <point x="116" y="455" type="line"/>
      <point x="256" y="455" type="line"/>
    </contour>
    <contour>
      <point x="202" y="515" type="line"/>
      <point x="282" y="600" type="line"/>
      <point x="267" y="515" type="line"/>
    </contour>
  </outline>
</glyph>
<glyph name="descender-cy.case" format="2">
  <advance width="236"/>
  <guideline x="30" y="80" angle="0"/>
  <guideline x="25" y="390" angle="90"/>
  <anchor x="-44" y="0" name="_bottomright"/>
  <outline>
    <contour>
      <point x="40" y="-150" type="curve"/>
      <point x="115" y="-150" type="line"/>
      <point x="155" y="80" type="line"/>
      <point x="-30" y="80" type="line"/>
      <point x="-44" y="0" type="line"/>
      <point x="26" y="0" type="line"/>
      <point x="21" y="-60"/>
      <point x="27" y="-110"/>
    </contour>
  </outline>
</glyph>
<glyph name="descender-cy" format="2">
  <advance width="231"/>
  <guideline x="29" y="75" angle="0"/>
  <guideline x="7" y="288" angle="90"/>
  <anchor x="-44" y="0" name="_bottomright"/>
  <outline>
    <contour>
      <point x="36" y="-145" type="curve"/>
      <point x="111" y="-145" type="line"/>
      <point x="149" y="75" type="line"/>
      <point x="-31" y="75" type="line"/>
      <point x="-44" y="0" type="line"/>
      <point x="21" y="0" type="line"/>
      <point x="16" y="-60"/>
      <point x="22" y="-110"/>
    </contour>
  </outline>
</glyph>
